<?xml version="1.0" encoding="iso-8859-1"?>
<!-- Uploaded to: SVG Repo, www.svgrepo.com, Generator: SVG Repo Mixer Tools -->
<svg fill="#000000" height="800px" width="800px" version="1.1" id="Layer_1" xmlns="http://www.w3.org/2000/svg" xmlns:xlink="http://www.w3.org/1999/xlink" 
	 viewBox="0 0 512 512" xml:space="preserve">
<g>
	<g>
		<path d="M256,405.333c-12.8,0-21.333,8.533-21.333,21.333S243.2,448,256,448c12.8,0,21.333-8.533,21.333-21.333
			S268.8,405.333,256,405.333z"/>
	</g>
</g>
<g>
	<g>
		<path d="M200.533,234.667l27.733-27.733c8.533-8.533,8.533-21.333,0-29.867s-21.333-8.533-29.867,0l-42.667,42.667
			c-8.533,8.533-6.4,21.333,0,29.867l42.667,42.667c8.533,8.533,21.333,8.533,29.867,0s8.533-21.333,0-29.867L200.533,234.667z"/>
	</g>
</g>
<g>
	<g>
		<path d="M356.267,219.733L313.6,177.067c-8.533-8.533-21.333-8.533-29.867,0s-8.533,21.333,0,29.867l27.733,27.733L283.733,262.4
			c-8.533,8.533-8.533,21.333,0,29.867s21.333,8.533,29.867,0l42.667-42.667C364.8,241.067,364.8,228.267,356.267,219.733z"/>
	</g>
</g>
<g>
	<g>
		<path d="M384,0H128c-23.467,0-42.667,19.2-42.667,42.667v426.667C85.333,492.8,104.533,512,128,512h256
			c23.467,0,42.667-19.2,42.667-42.667V42.667C426.667,19.2,407.467,0,384,0z M384,469.333H128V42.667h256V469.333z"/>
	</g>
</g>
</svg>